<?xml version="1.0" standalone="no"?>
<!DOCTYPE svg PUBLIC "-//W3C//DTD SVG 20010904//EN"
 "http://www.w3.org/TR/2001/REC-SVG-20010904/DTD/svg10.dtd">
<svg version="1.0" xmlns="http://www.w3.org/2000/svg"
 width="225.000000pt" height="225.000000pt" viewBox="0 0 225.000000 225.000000"
 preserveAspectRatio="xMidYMid meet">
<metadata>
Created by potrace 1.11, written by Peter Selinger 2001-2013
</metadata>
<g transform="translate(0.000000,225.000000) scale(0.100000,-0.100000)"
fill="#000000" stroke="none">
<path d="M432 2231 c-61 -21 -102 -57 -140 -121 l-27 -45 -3 -874 c-2 -861 -2
-874 18 -915 51 -103 219 -228 355 -265 27 -7 237 -11 627 -11 515 0 593 2
635 16 69 23 118 66 150 132 l28 57 3 805 c1 542 -1 822 -8 857 -13 62 -57
130 -106 162 -20 14 -64 32 -99 40 -58 15 -66 20 -97 65 -22 33 -52 60 -88 80
l-55 31 -570 2 c-533 3 -573 2 -623 -16z m969 -176 c-47 -27 -64 -45 -84 -85
-9 -18 -13 -161 -17 -521 l-5 -497 -148 104 c-85 60 -153 101 -160 97 -7 -3
-70 -46 -140 -95 -70 -49 -134 -91 -142 -95 -13 -4 -15 58 -15 468 0 295 4
488 10 511 14 50 55 97 105 119 36 17 70 19 340 19 l300 0 -44 -25z m481 -182
l23 -25 3 -785 c1 -527 -1 -797 -8 -824 -19 -71 2 -69 -642 -69 l-573 0 -60
29 c-133 64 -157 60 431 61 424 0 540 3 577 14 68 20 125 70 156 136 l26 55 2
540 c2 297 3 622 3 722 0 173 1 181 19 176 11 -3 30 -16 43 -30z"/>
</g>
</svg>
